<svg xmlns="http://www.w3.org/2000/svg" width="1024" height="1024" viewBox="0 0 1024 1024">
<defs>
 <linearGradient id="bg" x1="0" y1="0" x2="1" y2="1">
  <stop offset="0" stop-color="#22493A"/><stop offset="1" stop-color="#0C1512"/></linearGradient>
 <radialGradient id="glow" cx="0.5" cy="0.46" r="0.55">
  <stop offset="0" stop-color="#32D74B" stop-opacity="0.26"/>
  <stop offset="1" stop-color="#32D74B" stop-opacity="0"/></radialGradient>
</defs>
<rect x="100" y="100" width="824" height="824" rx="184" fill="url(#bg)"/>
<rect x="100" y="100" width="824" height="824" rx="184" fill="url(#glow)"/>
<!-- the room track, sitting behind -->
<rect x="232" y="412" width="44" height="200" rx="22.0" fill="#7BE39A" opacity="0.3"/>
<rect x="312" y="322" width="44" height="380" rx="22.0" fill="#7BE39A" opacity="0.3"/>
<rect x="392" y="362" width="44" height="300" rx="22.0" fill="#7BE39A" opacity="0.3"/>
<rect x="472" y="272" width="44" height="480" rx="22.0" fill="#7BE39A" opacity="0.3"/>
<rect x="552" y="382" width="44" height="260" rx="22.0" fill="#7BE39A" opacity="0.3"/>
<rect x="632" y="312" width="44" height="400" rx="22.0" fill="#7BE39A" opacity="0.3"/>
<rect x="712" y="352" width="44" height="320" rx="22.0" fill="#7BE39A" opacity="0.3"/>
<rect x="792" y="407" width="44" height="210" rx="22.0" fill="#7BE39A" opacity="0.3"/>
<!-- the call track, in front -->
<rect x="210" y="442" width="44" height="140" rx="22.0" fill="#FFFFFF" opacity="1.0"/>
<rect x="290" y="362" width="44" height="300" rx="22.0" fill="#FFFFFF" opacity="1.0"/>
<rect x="370" y="277" width="44" height="470" rx="22.0" fill="#FFFFFF" opacity="1.0"/>
<rect x="450" y="397" width="44" height="230" rx="22.0" fill="#FFFFFF" opacity="1.0"/>
<rect x="530" y="242" width="44" height="540" rx="22.0" fill="#FFFFFF" opacity="1.0"/>
<rect x="610" y="347" width="44" height="330" rx="22.0" fill="#FFFFFF" opacity="1.0"/>
<rect x="690" y="387" width="44" height="250" rx="22.0" fill="#FFFFFF" opacity="1.0"/>
<rect x="770" y="437" width="44" height="150" rx="22.0" fill="#FFFFFF" opacity="1.0"/>
</svg>